<svg xmlns="http://www.w3.org/2000/svg" width="54.07397" height="68.823" viewBox="0 0 54.07397 68.823"><title>access</title><path d="M27.03687,68.823l-1.06055-1.06079C19.7677,61.553,6.27039,45.96338,2.8468,39.12305A26.76376,26.76376,0,0,1,0,27.03687a27.037,27.037,0,0,1,54.074,0,26.76178,26.76178,0,0,1-2.84582,12.08618C47.80359,45.96533,34.306,61.5542,28.09766,67.76245ZM27.037,3A24.0642,24.0642,0,0,0,3,27.03687a23.78976,23.78976,0,0,0,2.52954,10.7434c3.05615,6.106,15.17371,20.23169,21.50757,26.781,6.33374-6.54834,18.45142-20.67334,21.5083-26.781A24.04191,24.04191,0,0,0,27.037,3Zm-.40113,35.86816A12.18909,12.18909,0,1,1,38.8252,26.679,12.203,12.203,0,0,1,26.63586,38.86816Zm0-21.37817a9.18909,9.18909,0,1,0,9.18934,9.189A9.19947,9.19947,0,0,0,26.63586,17.49Z" style="fill:#fff"/></svg>