<svg xmlns="http://www.w3.org/2000/svg" width="69.99275" height="70" viewBox="0 0 69.99275 70"><title>degital-pumph</title><path d="M40.10912.20746a22.52485,22.52485,0,0,0-6.95824,2.12165A18.91982,18.91982,0,0,0,28.831,5.07853l-.77921.6703H16.93087c-6.8489,0-11.46226.05351-12.00952.13932A5.98307,5.98307,0,0,0,.5099,9.26212l-.44154.92961L.03418,31.85257,0,53.51342l.28577.86124a6.02834,6.02834,0,0,0,2.7764,3.30373c1.19342.68829,1.43541.70172,12.65885.70172H26.17893l-.08755,1.18932a12.46686,12.46686,0,0,1-1.79873,6.22007,3.21878,3.21878,0,0,1-2.13284,1.2133,4.06362,4.06362,0,0,0-1.17564.34513,1.46589,1.46589,0,0,0-.05469,2.29693L21.35325,70H48.6395l.42377-.35514a1.46591,1.46591,0,0,0-.05466-2.29693,4.06419,4.06419,0,0,0-1.17567-.34513,3.21882,3.21882,0,0,1-2.13284-1.2133,12.46747,12.46747,0,0,1-1.79873-6.22007l-.08755-1.18932H54.27174c11.22343,0,11.46542-.01343,12.65884-.70172A6.0284,6.0284,0,0,0,69.707,54.37466l.28574-.86124-.03418-21.66085-.03415-21.66084-.44157-.92961a5.983,5.983,0,0,0-4.41145-3.374A30.9302,30.9302,0,0,0,61.811,5.74883H59.43916l-.77922-.67159A22.44753,22.44753,0,0,0,49.56908.62163a29.84156,29.84156,0,0,0-9.46-.41417Zm8.07926,3.21433a18.16571,18.16571,0,0,1,9.44609,4.84239A10.36112,10.36112,0,0,1,61.11653,16.07c-.00579,6.094-5.36839,11.13563-13.54332,12.73259-.98991.19338-2.488.2351-10.11616.2817l-8.95414.05466,1.19175-1.21666c1.87463-1.91387,1.89957-2.29753.2576-3.96444-2.46474-2.50217-3.58195-4.96237-3.58195-7.88785a10.44647,10.44647,0,0,1,3.173-7.51876,14.50065,14.50065,0,0,1,3.55288-2.80362A22.4041,22.4041,0,0,1,40.80634,3.1617a32.61293,32.61293,0,0,1,7.382.26009ZM25.42706,8.82468c0,.03787-.27092.57416-.60777,1.203a12.56024,12.56024,0,0,0-.88213,9.97943,15.379,15.379,0,0,0,3.185,5.42013l.35544.33513-2.03186,2.05056c-2.22151,2.242-2.39077,2.52722-2.01958,3.404.40537.9575-.118.91591,11.52919.91591,12.37177,0,13.08235-.05483,16.78732-1.29506C62.00923,27.40109,66.93936,18.00075,62.664,10.014a12.19152,12.19152,0,0,1-.60008-1.20985A5.59246,5.59246,0,0,1,63.472,8.78883c1.50373.0785,2.1893.30983,2.78031.93811.768.8164.733-.02735.733,17.6759V43.75271H3.00748v-16.343c0-14.436.02458-16.40207.21047-16.84884A2.76112,2.76112,0,0,1,5.33148,8.88248c.54682-.11019,20.09558-.16641,20.09558-.0578ZM66.98527,49.9386c0,2.77509-.032,3.24776-.25238,3.72521A3.17943,3.17943,0,0,1,64.962,55.22814c-.72452.20114-59.20676.20114-59.93129,0a3.17948,3.17948,0,0,1-1.77086-1.56433c-.22034-.47745-.25239-.95012-.25239-3.72521V46.76022H66.98527V49.9386ZM40.79409,59.296a19.40062,19.40062,0,0,0,1.66159,6.99929,6.48084,6.48084,0,0,1,.33286.64936c0,.02633-3.49965.04782-7.79215.04782s-7.79218-.02149-7.79218-.04782a6.47973,6.47973,0,0,1,.33289-.64936A19.40131,19.40131,0,0,0,29.19867,59.296l.08345-.91591H40.71063l.08346.91591Z" style="fill:#fff"/><path d="M35.87128,11.75817a1.49413,1.49413,0,0,0-.48166,2.357l.39966.45114H51.70167l.39958-.45114a1.38967,1.38967,0,0,0,0-1.96854l-.39958-.45114L43.93,11.66812c-4.27886-.015-7.90068.02541-8.05875.09Z" style="fill:#fff"/><path d="M35.87128,20.50653a1.49567,1.49567,0,0,0-.48469,2.35771l.40269.45112,4.82565.041a34.5199,34.5199,0,0,0,5.20846-.1178,1.52607,1.52607,0,0,0,.082-2.67151c-.29808-.15414-1.27135-.18952-5.05808-.184-2.58371.00375-4.81783.0592-4.976.12346Z" style="fill:#fff"/><path d="M33.90275,48.27121a2.96676,2.96676,0,0,0-.2324,5.3883,2.73888,2.73888,0,0,0,2.65207-.001,2.93012,2.93012,0,0,0,.34175-5.03778,2.24529,2.24529,0,0,0-1.50375-.45251,4.04436,4.04436,0,0,0-1.25767.103Z" style="fill:#fff"/></svg>