<svg xmlns="http://www.w3.org/2000/svg" width="69.82319" height="56" viewBox="0 0 69.82319 56"><title>アセット 334</title><rect y="42.15998" width="69.82319" height="13.84002" style="fill:#1e2585"/><rect width="69.82319" height="42.16281" style="fill:#f09625"/><path d="M11.2132,11.10146h8.60825V32.90421c0,1.79918-1.49317,5.45912-5.21772,5.72859a36.965,36.965,0,0,1-5.49558-.26947V34.35811s2.38011.95146,3.66278.275c1.28548-.67916,1.423-2.0994,1.423-3.79468V14.01767l-3.0004-.02245Z" style="fill:#1e2585"/><rect x="14.05614" y="3.63194" width="5.76504" height="5.765" style="fill:#1e2585"/><path d="M36.56757,25.71392c-.55294,3.88735-3.20811,3.64872-4.38693,3.57857a12.163,12.163,0,0,1-1.72615-.22733V20.5551c1.09182-.93458,3.42422-1.4623,4.38693-.82794,2.15838,1.42024,1.98437,4.21293,1.72615,5.98676m3.834-7.96556a5.38378,5.38378,0,0,0-5.6219-2.164,9.05881,9.05881,0,0,0-4.32518,2.18368V9.53312h-5.1251V32.87954h5.1251v-.89535a8.58853,8.58853,0,0,0,4.32518,1.26863A6.70147,6.70147,0,0,0,40.337,30.21876a12.08069,12.08069,0,0,0,.06456-12.4704" style="fill:#1e2585"/><path d="M60.40771,16.91228s-7.19929-3.25017-11.76023.1965c-1.90016,1.49878-5.34122,5.95309-2.25943,12.19245,1.10025,2.22856,3.58421,3.94346,7.47154,4.067,1.29952.04771,4.38412.12634,6.54812-1.26024V27.59481l-.741-.02527s-1.29951,2.34078-5.12791,1.97306c-3.82557-.3648-4.07538-4.1988-3.82557-6.36561a4.55117,4.55117,0,0,1,4.62831-3.94346,5.82341,5.82341,0,0,1,4.20168,1.91413l.86448.03375Z" style="fill:#1e2585"/><path d="M25.1509,36.47182a.90622.90622,0,0,0,.90937.91222h33.431a.9122.9122,0,1,0,0-1.82436h-33.431a.90793.90793,0,0,0-.90937.91214" style="fill:#1e2585"/><path d="M4.19215,50.478l-.11227.21619a1.3202,1.3202,0,0,1-.90939.1684l-.014.84481a1.9422,1.9422,0,0,0,1.56617-.36489,1.18066,1.18066,0,0,0,.39294-.86451l.014-3.81713H4.20618Z" style="fill:#f09625"/><path d="M8.13646,50.84152c-.915,0-1.437-.7971-1.437-1.79069,0-.988.52205-1.7907,1.437-1.7907s1.46511.81671,1.46511,1.81314c0,.98794-.55013,1.76825-1.46511,1.76825m0-4.401a2.62005,2.62005,0,0,0,0,5.2234,2.62006,2.62006,0,0,0,0-5.2234" style="fill:#f09625"/><path d="M45.6628,50.84152c-.91219,0-1.43424-.7971-1.43424-1.79069,0-.988.52205-1.7907,1.43424-1.7907.915,0,1.46512.81671,1.46512,1.81314,0,.98794-.55013,1.76825-1.46512,1.76825m0-4.401a2.62006,2.62006,0,1,0,2.411,2.61033,2.5167,2.5167,0,0,0-2.411-2.61033" style="fill:#f09625"/><path d="M11.7709,46.73129a1.258,1.258,0,0,0-.814,1.09467,1.45963,1.45963,0,0,0,.67081,1.22375l.50241.26947a7.99966,7.99966,0,0,1,.94868.51924l.14314.34236a.76858.76858,0,0,1-.56416.56139,3.03742,3.03742,0,0,1-1.58861-.25825l-.0393.86734a2.90261,2.90261,0,0,0,1.86368.20206,1.486,1.486,0,0,0,1.20689-1.17887,1.20648,1.20648,0,0,0-.49678-1.263,8.15741,8.15741,0,0,0-1.11709-.58382l-.47153-.275-.17963-.44626a.52737.52737,0,0,1,.31435-.39016,1.28145,1.28145,0,0,1,1.11989-.04771l.31154.25542h.18245l.0028-.85612a2.33608,2.33608,0,0,0-1.99558-.03649" style="fill:#f09625"/><path d="M31.47,46.73129a1.26407,1.26407,0,0,0-.81115,1.09467,1.44881,1.44881,0,0,0,.67361,1.22375l.50241.26947a8.22467,8.22467,0,0,1,.94868.51924l.13753.34236a.765.765,0,0,1-.55854.56139,3.05411,3.05411,0,0,1-1.59422-.25825l-.03931.86734a2.91723,2.91723,0,0,0,1.86649.20206,1.4858,1.4858,0,0,0,1.2097-1.17887,1.2143,1.2143,0,0,0-.494-1.263,8.67717,8.67717,0,0,0-1.11989-.58382l-.46873-.275-.18243-.44626a.393.393,0,0,1,.27505-.34245,1.77533,1.77533,0,0,1,1.322-.04771l.14314.20771h.188v-.85612A2.34226,2.34226,0,0,0,31.47,46.73129" style="fill:#f09625"/><rect x="19.12791" y="46.65078" width="0.96833" height="4.80232" style="fill:#f09625"/><path d="M15.85385,49.59311c.22454-.5613.4547-1.12268.63152-1.55772.1684.44626.3761,1.00764.5838,1.55772Zm1.9142,1.86085h.98235l-1.7935-4.79385h-.93745L14.08,51.454h1.02166c.1263-.31153.28909-.70169.45188-1.12268h1.79631c.16.4323.31155.83085.41821,1.12268" style="fill:#f09625"/><path d="M27.46728,49.59311c.22735-.5613.45469-1.12268.63433-1.55772.1684.44626.3789,1.00764.5866,1.55772Zm1.917,1.86085h.98235l-1.79631-4.79385h-.93745L25.69342,51.454h1.02166c.1263-.31153.28348-.70169.45469-1.12268h1.7935c.16279.4323.30875.83085.421,1.12268" style="fill:#f09625"/><path d="M23.91761,50.688H23.1654V49.32955a6.3645,6.3645,0,0,1,.95148.04779.67534.67534,0,0,1-.19927,1.31069m-.146-3.28383c.34523.01122.53609.04771.69327.31992a.65654.65654,0,0,1-.41259.90657,5.33053,5.33053,0,0,1-.88693.05619V47.393Zm1.89175,2.39688c-.09543-.57252-.60907-.72687-.83641-.87848a1.25461,1.25461,0,0,0,.64555-1.19566c-.03368-.86168-.87851-1.06657-1.44828-1.06657H22.3318V51.4543h1.8328a1.50589,1.50589,0,0,0,1.4988-1.65322" style="fill:#f09625"/><polygon points="37.059 47.392 37.059 46.659 34.126 46.659 34.126 51.453 37.059 51.453 37.059 50.707 35.094 50.707 35.094 49.385 36.857 49.385 36.857 48.632 35.094 48.632 35.094 47.392 37.059 47.392" style="fill:#f09625"/><polygon points="58.357 47.392 58.357 46.659 55.416 46.659 55.416 51.453 58.357 51.453 58.357 50.707 56.387 50.707 56.387 49.385 58.15 49.385 58.15 48.632 56.387 48.632 56.387 47.392 58.357 47.392" style="fill:#f09625"/><polygon points="66.295 47.392 66.295 46.659 63.357 46.659 63.357 51.453 66.295 51.453 66.295 50.707 64.328 50.707 64.328 49.385 66.088 49.385 66.088 48.632 64.328 48.632 64.328 47.392 66.295 47.392" style="fill:#f09625"/><path d="M43.08342,50.58216a3.62029,3.62029,0,0,1-1.57459.16A1.56934,1.56934,0,0,1,40.2037,49.075a1.59538,1.59538,0,0,1,1.59141-1.74582,3.56705,3.56705,0,0,1,1.08621.26108l.22174-.79154a3.00161,3.00161,0,0,0-1.49038-.35923,2.6213,2.6213,0,0,0,0,5.22614,3.37031,3.37031,0,0,0,1.482-.23855Z" style="fill:#f09625"/><polygon points="49.697 50.689 49.697 46.659 48.695 46.659 48.695 51.453 51.575 51.453 51.575 50.689 49.697 50.689" style="fill:#f09625"/><polygon points="53.058 50.697 53.058 46.661 52.059 46.661 52.059 51.455 54.936 51.455 54.936 50.697 53.058 50.697" style="fill:#f09625"/><path d="M61.90988,50.807l.00281-1.32191H60.85736v-.74383l1.78226.014.00561,2.78712-1.74577.01122a2.55213,2.55213,0,0,1-1.92823-1.24619,2.97623,2.97623,0,0,1,.233-2.81239,1.91084,1.91084,0,0,1,1.235-.83642,9.118,9.118,0,0,1,2.16678,0l-.01122.77192a8.06548,8.06548,0,0,0-1.75982-.0281,1.43113,1.43113,0,0,0-1.12831,1.12834,2.06855,2.06855,0,0,0,.27226,1.52962,1.6399,1.6399,0,0,0,1.089.755,1.58723,1.58723,0,0,0,.842-.00848" style="fill:#f09625"/></svg>