<svg xmlns="http://www.w3.org/2000/svg" width="89.0708" height="60.5" viewBox="0 0 89.0708 60.5"><title>城西大学</title><rect x="0.125" y="0.125" width="88.8208" height="60.25" style="fill:#fbce00"/><path d="M88.8208.25v60H.25V.25H88.8208m.25-.25H0V60.5H89.0708V0Z" style="fill:#fff"/><rect x="0.25001" y="9.13889" width="43.17431" height="51.11111" style="fill:#0067b5"/><path d="M6.94158,57.1546,6.87285,42.40414l11.35051-.04875a3.07077,3.07077,0,0,0,2.3615-.80991,2.45777,2.45777,0,0,0,.5365-1.71656L21.051,24.63129l-7.20021.03091-.05566-13.34249L38.41864,11.211l.05466,13.34544-2.38034.01131.08091,17.848c.05252,12.79015-13.42453,14.64844-13.56073,14.66571ZM8.40321,43.92074l.05465,11.704,14.05552-.06056a18.23326,18.23326,0,0,0,6.12-2.271,11.90489,11.90489,0,0,0,6.01713-10.87086l-.08782-19.37062,2.381-.0113-.04209-10.29931-21.57688.09524.0431,10.296,7.1997-.0309.07225,16.63834.00013-.00019a3.937,3.937,0,0,1-.90327,2.803,4.48357,4.48357,0,0,1-3.50637,1.33611Z" style="fill:#fbce00"/><path d="M69.57067,57.82868c-.26323-.01658-20.68392-1.73446-22.53894-24.79815l-.09511-21.72319,14.8947-.06415.09071,21.266c.031.26109.90339,7.79973,7.8792,9.66731L69.665,11.11516l14.65811-.06778.2043,46.71949ZM48.46647,12.82412l.08619,20.14208C50.2985,54.64478,68.83414,56.24964,69.62231,56.30731l13.375-.05735-.19085-43.67223-11.61135.05372.13758,31.41166-.90288-.16541C61.4873,42.23935,60.41241,32.686,60.40261,32.5897l-.08795-19.81665Z" style="fill:#0067b5"/><path d="M11.484,1.9899l.03809,3.52633a1.83314,1.83314,0,0,1-.57023,1.37822,2.49692,2.49692,0,0,1-1.68082.56919c-1.06016.00411-2.24383-.43951-2.248-1.84757l-.00927-.57845,1.42145-.01544-.001.42818a.786.786,0,0,0,1.56554.072l-.03706-3.515L11.484,1.9899" style="fill:#0067b5"/><path d="M15.94667,4.68046c.00618.75962-.30363,1.546-1.124,1.55834-.8574.00617-1.15383-.83579-1.16-1.50585-.00412-.6011.19556-1.57377,1.1353-1.57994.82136-.01236,1.14147.76166,1.14867,1.52745m1.56555-.01853a2.70657,2.70657,0,1,0-5.40992.04941,2.70675,2.70675,0,1,0,5.40992-.04941" style="fill:#0067b5"/><path d="M19.51572,5.703c.05557.4004.31084.51258.74313.51052a1.65073,1.65073,0,0,0,.55788-.09778.30532.30532,0,0,0,.16777-.29128c-.00412-.18939-.11322-.33143-1.018-.55993-1.13633-.31187-1.91961-.61037-1.92888-1.66023-.00309-1.019.809-1.722,2.143-1.73332a2.68322,2.68322,0,0,1,1.39777.33657,1.73492,1.73492,0,0,1,.78946,1.3072l-1.55422.01338c-.03808-.33555-.28511-.40657-.63507-.39936-.21821.001-.58257.03808-.58154.30981a.28143.28143,0,0,0,.1863.25526c.18733.0947,1.195.37466,1.42041.43951.51876.177,1.33189.43744,1.337,1.477.00926.76683-.5023,1.83728-2.27266,1.85066a2.38534,2.38534,0,0,1-1.969-.82857,2.12934,2.12934,0,0,1-.33143-.91915l1.54805-.0103" style="fill:#0067b5"/><path d="M24.86479,5.69913l.62272-2.16458.66492,2.15017Zm1.59437,1.00252.23261.703,1.49452-.01442L26.25433,2.11l-1.56657.01236L22.87828,7.44377l1.49349-.0175.19041-.704Z" style="fill:#0067b5"/><polygon points="30.273 7.434 28.704 7.447 28.64 2.141 30.212 2.13 30.273 7.434" style="fill:#0067b5"/><path d="M39.492,1.98208l.035,3.21858a2.116,2.116,0,0,1-.57846,1.616,3.42826,3.42826,0,0,1-3.9298.036,2.09756,2.09756,0,0,1-.60213-1.60261l-.036-3.21856,1.5151-.01544.03706,3.28445A.7525.7525,0,0,0,36.223,5.952a1.21431,1.21431,0,0,0,.76167.25423.96637.96637,0,0,0,1.02517-.92739l-.036-3.28341,1.5182-.01338" style="fill:#0067b5"/><polygon points="43.877 7.431 41.669 4.317 41.749 7.453 40.256 7.468 40.203 2.158 41.695 2.142 42.436 3.18 43.909 5.243 43.827 2.124 45.317 2.114 45.369 7.416 43.877 7.431" style="fill:#0067b5"/><polygon points="47.734 7.421 46.165 7.433 46.118 2.126 47.685 2.115 47.734 7.421" style="fill:#0067b5"/><polygon points="50.889 5.81 51.933 2.155 53.507 2.135 51.7 7.46 50.106 7.475 48.195 2.186 49.772 2.168 50.889 5.81" style="fill:#0067b5"/><polygon points="58.481 6.228 58.489 7.396 54.018 7.443 53.962 2.129 58.351 2.086 58.373 3.251 55.504 3.283 55.51 4.171 57.964 4.146 57.977 5.259 55.517 5.279 55.527 6.26 58.481 6.228" style="fill:#0067b5"/><path d="M60.54315,3.28692l1.22793-.01236a.53372.53372,0,0,1,.50126.5661.54381.54381,0,0,1-.49509.58772l-1.22484.01544-.00926-1.1569M63.79465,6.031a1.07511,1.07511,0,0,0-.48582-.94385,1.15272,1.15272,0,0,0-.57229-.15438,1.32093,1.32093,0,0,0,.69992-.43128,1.48839,1.48839,0,0,0,.33863-.95414c-.01852-.90886-.6927-1.45026-1.87432-1.442l-2.89434.02882.05043,5.307,1.52129-.01133-.01751-1.89285.95106-.01235c.35511-.002.47862.08954.55376.17292a.78128.78128,0,0,1,.212.55992l.00413.59493a.9307.9307,0,0,0,.13174.561l1.56245-.01852-.00308-.104a.17278.17278,0,0,1-.11425-.106,1.07911,1.07911,0,0,1-.05867-.47552Z" style="fill:#0067b5"/><path d="M65.90561,5.7297c.05969.39937.317.50847.7452.50951a1.50493,1.50493,0,0,0,.5589-.09778.28736.28736,0,0,0,.15953-.28614c.001-.19557-.105-.33657-1.01693-.56817-1.13324-.30467-1.91549-.60727-1.92579-1.654-.01955-1.019.81108-1.72611,2.14091-1.74155A2.64174,2.64174,0,0,1,67.958,2.2353a1.72215,1.72215,0,0,1,.79976,1.30821l-1.55217.01133c-.0494-.33246-.282-.40554-.6402-.4004-.21,0-.57949.034-.57846.31394a.26948.26948,0,0,0,.1863.24805c.18938.08852,1.19191.37981,1.41732.4498.52185.16984,1.3319.42921,1.34218,1.46982.00515.76579-.52081,1.83933-2.28191,1.85168a2.37,2.37,0,0,1-1.95564-.82755,2.1762,2.1762,0,0,1-.33864-.91915l1.54908-.01133" style="fill:#0067b5"/><rect x="69.61901" y="2.1591" width="1.56976" height="5.3031" transform="translate(-0.05195 0.83261) rotate(-0.67734)" style="fill:#0067b5"/><polygon points="74.959 7.416 73.432 7.431 73.398 3.344 71.689 3.357 71.671 2.147 76.624 2.095 76.637 3.311 74.925 3.33 74.959 7.416" style="fill:#0067b5"/><polygon points="80.234 7.425 78.664 7.441 78.649 5.431 76.743 2.148 78.47 2.137 79.423 3.982 80.324 2.118 82.057 2.096 80.215 5.415 80.234 7.425" style="fill:#0067b5"/></svg>