<svg xmlns="http://www.w3.org/2000/svg" width="70.01416" height="70.0001" viewBox="0 0 70.01416 70.0001"><title>siryo</title><path d="M69.80908,26.14536c-.11279-.15795-2.229-1.865-4.7041-3.79467L60.6062,18.84312l-.063-3.65112c-.06811-3.95215-.1455-4.41578-.97485-5.82544a7.743,7.743,0,0,0-2.54517-2.33912C55.7041,6.3563,54.91748,6.276,49.65259,6.276H44.82544L41.76245,3.711C38.53516,1.00889,37.8335.52061,36.70288.19126a7.35607,7.35607,0,0,0-3.542.05152,9.91484,9.91484,0,0,0-3.41846,2.228c-.823.69776-2.19482,1.84839-3.029,2.54029L25.18872,6.276H20.36157c-5.26489,0-6.05151.08032-7.3706.75146A7.743,7.743,0,0,0,10.4458,9.36656c-.82934,1.40966-.90674,1.87329-.97485,5.82544l-.063,3.65112L4.90918,22.35069C2.43408,24.28037.31787,25.98741.20508,26.14536.02588,26.3961,0,28.85972,0,45.59751,0,63.98985.01025,64.79234.25342,65.50108a5.80036,5.80036,0,0,0,1.6062,2.63916,5.80541,5.80541,0,0,0,2.63916,1.60644c.71338.24463,1.75049.25342,30.5083.25342s29.79492-.00879,30.5083-.25342a6.535,6.535,0,0,0,4.24536-4.2456c.24317-.70874.25342-1.51123.25342-19.90357C70.01416,28.85972,69.98828,26.3961,69.80908,26.14536Zm-9.23047.91626c0-3.282.03247-3.9602.18482-3.87011.10107.06006,1.24414.9375,2.52978,1.94189,1.2854,1.0044,2.342,1.86963,2.33838,1.91455A17.22316,17.22316,0,0,1,64.093,28.31284c-.84766.65479-1.97412,1.52759-2.52295,1.95533l-.99146.7727ZM31.79346,5.048c1.61377-1.38208,2.33252-1.78027,3.21362-1.78027a2.91135,2.91135,0,0,1,1.24438.30762,15.32242,15.32242,0,0,1,1.96241,1.47l1.36059,1.16235-2.28369.03418c-1.25806.019-3.30932.019-4.56738,0L30.4397,6.20762ZM12.85425,22.87022c0-9.51758.02612-10.92725.21167-11.37061a3.19429,3.19429,0,0,1,2.18139-1.813c1.19092-.29394,10.2439-.09106,20.03321-.08081l19.623.02051.54712.294a4.3531,4.3531,0,0,1,.92163.69067c.8169.865.7876.41016.7876,12.25244V33.72105l-4.89551,3.8811c-5.59277,4.43408-11.21972,9.00562-13.7019,11.13233a21.64042,21.64042,0,0,1-2.25635,1.75366,3.46586,3.46586,0,0,1-2.59814.0664c-.227-.12109-1.32642-.9956-2.46143-1.958-3.08984-2.61988-7.22021-5.979-13.10034-10.65406l-5.292-4.20776ZM6.87134,25.024l2.4956-1.9419.041,1.98975c.0227,1.094.0227,2.876,0,3.95874l-.041,1.96924L6.87817,29.0648c-1.36743-1.06323-2.4917-1.97193-2.4956-2.01685C4.37891,27.003,5.50391,26.088,6.87134,25.024Zm59.0039,40.73681a4.03879,4.03879,0,0,1-.989.7041c-.52417.24268-1.76392.25318-29.87915.25318-28.15625,0-29.354-.01-29.87915-.25073a3.27729,3.27729,0,0,1-1.59546-1.59546C3.2937,64.35069,3.282,63.525,3.282,47.38877c0-13.52417.03418-16.90967.1709-16.80615.094.07153,3.37061,2.64941,7.28174,5.729,8.574,6.751,14.55859,11.56812,18.05054,14.52881a27.03163,27.03163,0,0,0,3.4187,2.6084c2.42041,1.1958,5.0935.7251,7.45263-1.31225C43.47,48.84312,49.98071,43.58824,59.70337,35.95713l6.96045-5.46338.04028,16.84717C66.74854,65.93858,66.79907,64.818,65.87524,65.76084Z" style="fill:#fff"/><path d="M30.20728,25.46153a1.42875,1.42875,0,0,0,1.38281-.76563,1.56375,1.56375,0,0,0-1.42383-2.42041,1.14362,1.14362,0,0,0-1.012.41016,2.00474,2.00474,0,0,0-.50025.82055A1.63711,1.63711,0,0,0,30.20728,25.46153Z" style="fill:#fff"/><path d="M39.80688,25.46153a1.63711,1.63711,0,0,0,1.55323-1.95533,2.01638,2.01638,0,0,0-.49634-.82055,1.57178,1.57178,0,0,0-2.05518-.09937,1.52218,1.52218,0,0,0-.387,2.10962A1.43388,1.43388,0,0,0,39.80688,25.46153Z" style="fill:#fff"/><path d="M32.62769,34.78672a14.70233,14.70233,0,0,0,4.75878.00318,9.56024,9.56024,0,0,0,3.18628-1.38331c2.18775-1.59741,2.95142-3.27368,1.94922-4.28027-.84741-.85132-1.85156-.68359-2.70532.45142a5.237,5.237,0,0,1-2.79932,1.88647,5.52172,5.52172,0,0,1-2.33837.21631,5.389,5.389,0,0,1-4.5254-2.15747,2.03135,2.03135,0,0,0-1.53247-.94971,2.37182,2.37182,0,0,0-.67016.19092c-.96607.42114-1.18042,1.56543-.49292,2.63208A8.50924,8.50924,0,0,0,32.62769,34.78672Z" style="fill:#fff"/></svg>