<svg xmlns="http://www.w3.org/2000/svg" width="72.16094" height="70" viewBox="0 0 72.16094 70"><title>contact</title><path d="M69.76269,23.18895A36.68759,36.68759,0,0,0,23.94444,1.96125,34.08879,34.08879,0,0,0,3.16554,46.81081a35.94461,35.94461,0,0,0,2.929,5.87282A1.39156,1.39156,0,0,1,6.10231,54.024L.172,65.75286a1.21634,1.21634,0,0,0,.4021,1.69321.9469.9469,0,0,0,.74914.00665l12.982-4.93987a.96024.96024,0,0,1,.75248.01313.90518.90518,0,0,1,.16031.09566,37.199,37.199,0,0,0,6.62257,3.942,36.22369,36.22369,0,0,0,27.14323,1.47492A34.08889,34.08889,0,0,0,69.76269,23.18895ZM63.86453,47.69454a28.42615,28.42615,0,0,1-16.724,14.992,30.59,30.59,0,0,1-22.92044-1.259,31.62255,31.62255,0,0,1-5.61534-3.34143,6.58265,6.58265,0,0,0-6.31264-.8637l-1.81293.68988.67459-1.33417a7.07342,7.07342,0,0,0-.24627-6.87375A30.37788,30.37788,0,0,1,8.44024,44.757,28.42872,28.42872,0,0,1,25.78834,7.313,31.02769,31.02769,0,0,1,64.48739,25.24128,28.43386,28.43386,0,0,1,63.86453,47.69454Z" style="fill:#fff"/><path d="M54.418,45.23062l-.02379-.02683c-1.69418-1.92426-4.93536-5.07131-7.21068-2.23065-1.40125,1.7494-2.47758,2.88878-4.69335,2.27588a22.28727,22.28727,0,0,1-9.55192-6.22575l.00746-.00746-.16254-.15519L32.628,38.6981l-.00748.00746a22.28743,22.28743,0,0,1-6.22576-9.5519c-.61289-2.21579.52648-3.29212,2.27589-4.69335,2.84068-2.27532-.30639-5.5165-2.23065-7.21072l-.02681-.02377a3.34379,3.34379,0,0,0-.96689-.60128,3.12772,3.12772,0,0,0-3.23245.25736,8.80541,8.80541,0,0,0-2.75012,3.077,13.40861,13.40861,0,0,0-1.86218,7.72138c.34188,3.20205,1.995,6.33828,3.62561,8.94408a43.64127,43.64127,0,0,0,6.018,7.45663l-.00128.00127c.05288.053.10641.1054.1595.15821.05281.05308.10522.10662.15821.1595l.00126-.00129a43.64155,43.64155,0,0,0,7.45662,6.018c2.60582,1.63059,5.74207,3.28373,8.9441,3.62561A13.40874,13.40874,0,0,0,51.685,52.18006a8.80549,8.80549,0,0,0,3.077-2.75012,3.12774,3.12774,0,0,0,.25737-3.23247A3.34341,3.34341,0,0,0,54.418,45.23062Z" style="fill:#fff"/></svg>